<svg xmlns="http://www.w3.org/2000/svg">
    <symbol id="github" viewBox="0 0 24 24">
        <path d="M9 19c-5 1.5-5-2.5-7-3m14 6v-3.87a3.37 3.37 0 0 0-.94-2.61c3.14-.35 6.44-1.54 6.44-7A5.44 5.44 0 0 0 20 4.77 5.07 5.07 0 0 0 19.91 1S18.73.65 16 2.48a13.38 13.38 0 0 0-7 0C6.27.65 5.09 1 5.09 1A5.07 5.07 0 0 0 5 4.77a5.44 5.44 0 0 0-1.5 3.78c0 5.42 3.3 6.61 6.44 7A3.37 3.37 0 0 0 9 18.13V22"/>
    </symbol>
    <symbol id="linkedin" viewBox="0 0 24 24">
        <path d="M16 8a6 6 0 0 1 6 6v7h-4v-7a2 2 0 0 0-2-2 2 2 0 0 0-2 2v7h-4v-7a6 6 0 0 1 6-6z"/>
        <rect x="2" y="9" width="4" height="12"/>
        <circle cx="4" cy="4" r="2"/>
    </symbol>
    <symbol id="telegram" viewBox="0 0 24 24">
        <path d="M21.2 4.4L2.4 11.5c-.6.2-.6.7 0 .9l4.8 1.5 1.8 5.8c.2.5.7.5 1 .2l2.6-2.1 5.1 3.7c.5.4 1.1.1 1.2-.4L22.5 5.3c.2-.7-.4-1.2-1.3-.9z"/>
        <path d="M8.5 13.5l9-6.5-7 7.5-.5 3.5"/>
    </symbol>
</svg>
